<?xml version="1.0" encoding="UTF-8"?>
<svg width="23px" height="20px" viewBox="0 0 23 20" version="1.1" xmlns="http://www.w3.org/2000/svg" xmlns:xlink="http://www.w3.org/1999/xlink">
    <!-- Generator: Sketch 40.3 (33839) - http://www.bohemiancoding.com/sketch -->
    <title>bad</title>
    <desc>Created with Sketch.</desc>
    <defs></defs>
    <g id="Page-1" stroke="none" stroke-width="1" fill="none" fill-rule="evenodd">
        <g id="bad" fill="#D0011B">
            <g id="Page-1">
                <g id="bad">
                    <path d="M18,0 L22.03125,0 L22.03125,12 L18,12 L18,0 L18,0 Z M14.015625,0 C14.5468777,0 15.015623,0.20312297 15.421875,0.609375 C15.828127,1.01562703 16.03125,1.48437234 16.03125,2.015625 L16.03125,12 C16.03125,12.5312527 15.828127,12.999998 15.421875,13.40625 L8.859375,20.015625 L7.78125,18.9375 C7.49999859,18.6562486 7.359375,18.312502 7.359375,17.90625 L7.359375,17.578125 L8.34375,12.984375 L2.015625,12.984375 C1.48437234,12.984375 1.01562703,12.7890645 0.609375,12.3984375 C0.20312297,12.0078105 0,11.5468777 0,11.015625 L0.046875,10.921875 L0,10.921875 L0,9 C0,8.7499987 0.04687453,8.5000013 0.140625,8.25 L3.1875,1.21875 C3.50000156,0.40624594 4.10937047,0 5.015625,0 L14.015625,0 L14.015625,0 Z" id="thumb_down"></path>
                </g>
            </g>
        </g>
    </g>
</svg>