<?xml version="1.0" encoding="UTF-8"?>
<svg width="164px" height="50px" viewBox="0 0 164 50" version="1.1" xmlns="http://www.w3.org/2000/svg" xmlns:xlink="http://www.w3.org/1999/xlink">
    <!-- Generator: Sketch 40 (33762) - http://www.bohemiancoding.com/sketch -->
    <title>plurk</title>
    <desc>Created with Sketch.</desc>
    <defs></defs>
    <g id="Page-1" stroke="none" stroke-width="1" fill="none" fill-rule="evenodd">
        <g id="plurk">
            <path d="M30.9285611,36.3059848 C31.1781263,41.7275758 33.3649181,45.5980303 36.5916275,47.9230303 C39.7541629,50.2025758 53.4509776,49.795 57.2139707,49.4862879 C62.8252476,49.7635606 64.2205611,48.9154545 66.726346,46.8616667 C69.5961584,44.5090152 71.5074902,39.8381818 71.1866206,35.8499242 C70.8717556,31.9404545 70.193989,29.3090152 67.5328357,26.6063636 C65.2837465,24.3222727 61.6232064,22.9090152 57.1937053,22.6995455" id="Fill-1" fill="#E9443D"></path>
            <path d="M53.3271707,3.62333333 C50.7485803,1.36916667 47.6603515,0.241136364 44.0613584,0.241136364 C40.4612394,0.241136364 37.3730105,1.35856061 34.795546,3.59151515 C32.2165803,5.82598485 30.9285986,8.52219697 30.9285986,11.6831818 L30.9285986,36.2786364 L30.9319762,36.7036364 L57.1937428,22.6994697 L57.1937428,11.6831818 C57.1937428,8.565 55.9046352,5.87825758 53.3271707,3.62333333" id="Fill-4" fill="#E9443D"></path>
            <path d="M140.867631,6.55761364 C140.869883,6.57390152 143.065681,4.88829545 143.067933,4.90496212 C145.378194,3.81632576 147.53121,3.27125 149.527732,3.27125 C153.413443,3.27125 156.74786,4.58337121 159.532107,7.20685606 C162.315228,9.83185606 163.707164,12.9750379 163.707164,16.6382955 C163.707164,20.3023106 162.683009,23.9413258 160.635073,27.5545833 C162.683009,30.1788258 163.707164,32.926553 163.707164,35.7973864 C163.707164,39.4614015 162.328363,42.603447 159.571512,45.2280682 C156.814286,47.851553 153.491878,49.164053 149.606167,49.164053 C145.614624,49.164053 142.227292,47.851553 139.444546,45.2280682 M139.451677,45.5204924 C136.775887,47.8379167 133.638496,48.9973864 130.039878,48.9973864 C126.439759,48.9973864 123.35153,47.8803409 120.774066,45.6470076 C118.195476,43.4129167 116.907119,40.7163258 116.907119,37.5553409 L116.907119,12.7754167 C116.907119,9.65685606 118.195476,6.98147727 120.774066,4.74700758 C123.35153,2.51367424 126.439759,1.39662879 130.039878,1.39662879 C133.297736,1.39662879 136.131897,2.33488636 138.539732,4.20988636 C139.294807,4.79776515 139.952684,5.4307197 140.513736,6.10799242 C140.636455,6.2557197 140.754295,6.4057197 140.867631,6.55761364" id="Fill-6" fill="#E9443D"></path>
            <path d="M129.709476,27.1883333 L131.202364,30.3826515 C132.566529,33.3019697 132.562026,36.3644697 131.191856,39.5731818 C129.820561,42.7811364 127.49679,45.1656061 124.219417,46.7258333 C120.940918,48.2864394 117.639902,48.58 114.315618,47.6072727 C111.836479,46.8815152 110.17246,45.8455303 108.702465,44.0462879 M108.72836,44.0784848 C108.657431,44.1284848 107.099994,45.3296212 107.028314,45.3781061 C104.790483,46.8807576 102.211893,47.6326515 99.2906664,47.6326515 C95.6905474,47.6326515 92.6023185,46.5156061 90.024854,44.2822727 C87.4462636,42.0481818 86.1579066,39.3731818 86.1579066,36.2538636 L86.1579066,19.6917424 C86.1579066,14.297803 88.3705931,9.6830303 92.7974673,5.84780303 C97.2228403,2.01333333 102.5489,0.0951515152 108.775646,0.0951515152 C115.000891,0.0951515152 120.32695,2.01333333 124.753449,5.84780303 C129.178822,9.6830303 131.392634,14.297803 131.392634,19.6917424 C131.392634,22.3754545 130.832332,24.874697 129.711353,27.1894697" id="Fill-8" fill="#E9443D"></path>
            <path d="M100.305402,21.6978788 L100.305402,13.4800758 C100.305402,10.3194697 99.0159195,7.63272727 96.4384549,5.41984848 C93.8598645,3.20772727 90.7476174,2.10128788 87.0998371,2.10128788 C83.4028943,2.10128788 80.2414847,3.28159091 77.6148577,5.64143939 C74.9882307,3.23916667 71.8260705,2.0380303 68.1302535,2.0380303 C64.5301346,2.0380303 61.4419057,3.15507576 58.8644412,5.38840909 C56.2854755,7.62287879 54.9974938,10.2986364 54.9974938,13.4168182 L54.9974938,30.042197 C54.9974938,35.4372727 57.22294,40.0520455 61.6734572,43.8861364 C66.1239744,47.7206061 71.4612924,49.6387879 77.6876632,49.6387879 C83.9136586,49.6387879 89.2393428,47.7206061 93.6658416,43.8861364 C98.0912146,40.0520455 100.305402,35.4372727 100.305402,30.042197 L100.305402,21.8243939" id="Fill-10" fill="#E9443D"></path>
            <path d="M45.5190819,19.6916667 C45.5190819,24.5810606 43.658789,28.8579545 39.9378279,32.5242424 C36.2168668,36.1909091 31.5347982,38.3617424 25.8931231,39.0352273 C25.163567,41.5640152 23.6552924,43.6284091 21.3698005,45.2306818 C19.0828073,46.8318182 16.432162,47.6325758 13.417114,47.6325758 C9.81699497,47.6325758 6.72876613,46.5155303 4.1513016,44.282197 C1.57233593,42.0481061 0.284354233,39.3731061 0.284354233,36.2537879 L0.284354233,19.6916667 C0.284354233,14.2977273 2.49704073,9.68295455 6.92353959,5.84772727 C11.3489126,2.01325758 16.6753474,0.0950757576 22.9017181,0.0950757576 C29.1273382,0.0950757576 34.4533977,2.01325758 38.8798966,5.84772727 C43.3052696,9.68295455 45.5190819,14.2977273 45.5190819,19.6916667" id="Fill-12" fill="#E9443D"></path>
            <path d="M55.9134169,41.6159091 L43.3372064,41.6159091 C42.2098471,41.6159091 41.2389822,41.15 40.4249867,40.2166667 C39.610616,39.2848485 39.1951744,38.2022727 39.1951744,36.8768939 L39.1951744,12.0965909 C39.1951744,10.9590909 39.6567762,9.97916667 40.581481,9.15719697 C41.5046847,8.33522727 42.6241629,7.92462121 43.9372888,7.92462121 C45.2507899,7.92462121 46.3815268,8.33522727 47.3298746,9.15719697 C48.2785977,9.97916667 48.752584,10.9590909 48.752584,12.0965909 L48.7529593,31.9689394 L57.0700485,31.9689394 L57.0700485,31.9469697 L59.0230371,31.9469697 C60.1503963,31.9469697 61.1111286,32.4257576 61.904108,33.3829545 C62.6974627,34.3405303 63.09414,35.4818182 63.09414,36.8075758 C63.09414,38.1329545 62.6974627,39.2628788 61.904108,40.1950758 C61.1111286,41.1280303 60.1503963,41.6159091 59.0230371,41.6159091 L55.9137922,41.6159091 L55.9134169,41.6159091 Z" id="Fill-14" fill="#FFFDFF"></path>
            <path d="M25.7305117,23.2589015 C24.8298252,24.0392045 23.7242325,24.4282197 22.4111066,24.4282197 L17.7414224,24.4282197 L17.7414224,20.3823864 C17.7414224,19.2873106 18.2030243,18.3388258 19.1277291,17.5376894 C20.0509327,16.7380682 21.1456421,16.336553 22.4111066,16.336553 C23.67507,16.336553 24.7697794,16.7380682 25.6941089,17.5376894 C26.6176879,18.3388258 27.0804156,19.2873106 27.0804156,20.3823864 C27.0804156,21.5202652 26.6300723,22.4793561 25.7305117,23.2589015 M32.4792805,11.6903409 C29.7066673,9.26761364 26.3508595,8.05549242 22.4111066,8.05549242 C18.4709785,8.05549242 15.1147954,9.25662879 12.3425574,11.6589015 C9.56994416,14.0607955 8.18401281,16.9691288 8.18401281,20.3823864 L8.18401281,36.9448864 C8.18401281,38.0827652 8.64561465,39.0524621 9.56994416,39.8524621 C10.4935231,40.6535985 11.6130014,41.0535985 12.9261272,41.0535985 C14.2392531,41.0535985 15.3703652,40.6535985 16.318713,39.8524621 C17.2674362,39.0524621 17.7414224,38.0827652 17.7414224,36.9448864 L17.7414224,32.7725379 L22.4111066,32.7725379 C26.3508595,32.7725379 29.7066673,31.561553 32.4792805,29.1376894 C35.2515185,26.7149621 36.6378252,23.7960227 36.6378252,20.3823864 C36.6378252,17.011553 35.2515185,14.1142045 32.4792805,11.6903409" id="Fill-16" fill="#FFFFFF"></path>
            <path d="M135.630439,30.3608333 L135.630815,36.7233333 C135.630815,37.9036364 135.156453,38.8941667 134.208105,39.6945455 C133.259382,40.495303 132.128645,40.895303 130.815519,40.895303 C129.502018,40.895303 128.38254,40.495303 127.459336,39.6945455 C126.534632,38.8941667 126.07303,37.9036364 126.07303,36.7233333 L126.07303,11.9430303 C126.07303,10.8051515 126.534632,9.82522727 127.459336,9.00363636 C128.38254,8.18166667 129.502018,7.77106061 130.815519,7.77106061 C132.128645,7.77106061 133.259382,8.18166667 134.208105,9.00363636 C135.156453,9.82522727 135.630815,10.8051515 135.630815,11.9430303 L135.630439,20.632803 L140.347034,20.632803 C142.40773,20.632803 143.799666,19.7915152 144.521716,18.107803 C145.036609,16.5737121 145.552252,15.0388636 146.06827,13.5036364 C146.841359,11.8214394 148.283959,10.9790152 150.397945,10.9790152 C151.789881,10.9790152 152.974659,11.4498485 153.954531,12.39 C154.932902,13.3309091 155.4234,14.4691667 155.4234,15.8059091 C155.4234,20.1131061 153.773268,23.7028788 150.475254,26.5737121 L154.495693,32.2172727 C155.114165,33.1085606 155.921405,34.9043939 155.921405,35.8445455 C155.921405,37.1812879 155.679721,38.2062879 154.70135,39.1718182 C153.721478,40.1369697 152.260865,40.4945455 150.818641,40.4945455 C149.117469,40.4945455 147.253048,39.1733333 146.222888,37.7869697 L140.810888,30.3608333 L135.630439,30.3608333 Z" id="Fill-18" fill="#FFFFFF"></path>
            <path d="M63.9685941,12.4151136 C63.9685941,11.2772348 64.4425803,10.3082955 65.3913034,9.50753788 C66.3396513,8.70715909 67.4707634,8.30602273 68.7838892,8.30602273 C70.0973904,8.30602273 71.2281272,8.70715909 72.1764751,9.50753788 C73.1251982,10.3082955 73.5991844,11.2772348 73.5991844,12.4151136 L73.5991844,29.0408712 C73.5991844,30.1370833 74.0607863,31.0851894 74.9854911,31.8855682 C75.90907,32.6863258 77.0030288,33.0863258 78.2684934,33.0863258 C79.532832,33.0863258 80.6271661,32.6863258 81.5518709,31.8855682 C82.4750746,31.0851894 82.9381776,30.1370833 82.9381776,29.0408712 L82.9381776,12.4783712 C82.9381776,11.3404924 83.4121638,10.360947 84.360887,9.53897727 C85.3092348,8.71738636 86.4399716,8.30602273 87.7534728,8.30602273 C89.0665986,8.30602273 90.184951,8.71738636 91.1096558,9.53897727 C92.0328595,10.360947 92.4955872,11.3404924 92.4955872,12.4783712 L92.4959625,29.0408712 C92.4468,32.4541288 90.9749281,35.3620833 88.227459,37.7643561 C85.4792394,40.1666288 82.1354407,41.3673864 78.1956879,41.3673864 C74.255935,41.3673864 70.8997519,40.1564015 68.1271387,37.7325379 C65.3549007,35.3098106 63.9685941,32.4128409 63.9685941,29.0408712 L63.9685941,12.4151136 Z" id="Fill-20" fill="#FFFDFF"></path>
            <path d="M113.075185,16.6373864 C112.150481,15.8370076 111.056146,15.43625 109.791808,15.43625 C108.526719,15.43625 107.432384,15.8370076 106.508805,16.6373864 C105.584101,17.4385227 105.122499,18.3866288 105.122499,19.4820833 L105.122499,23.5275379 L109.791808,23.5275379 C111.105309,23.5275379 112.210902,23.1385227 113.111588,22.3582197 C114.011149,21.579053 114.461492,20.6199621 114.461492,19.4820833 C114.461492,18.3866288 113.998389,17.4385227 113.075185,16.6373864 M119.434783,28.4854924 L122.62584,33.7582197 C123.238682,34.7135227 123.362902,35.7877652 122.997373,36.9794318 C122.632595,38.1722348 121.898535,39.1286742 120.79632,39.8491288 C119.694105,40.5692045 118.5386,40.8476136 117.33243,40.6817045 C116.125135,40.5169318 115.215442,39.9563258 114.602975,39.0006439 L110.250032,32.1745076 M110.242902,32.179053 C110.206874,32.180947 110.170471,32.1832197 110.134444,32.1851136 C109.851103,32.1998864 109.565886,32.2070833 109.278416,32.2070833 L105.124,32.2256439 L105.129254,36.06125 C105.129254,38.7593561 102.881666,40.9468561 100.108677,40.9468561 C97.3360641,40.9468561 95.088476,38.7593561 95.088476,36.06125 L95.088476,31.4139015 L95.088476,20.1752652 C95.0847231,20.0593561 95.088476,19.9426894 95.088476,19.8256439 C95.088476,12.9877652 101.430059,7.44420455 109.278416,7.44420455 C117.126773,7.44420455 123.489373,12.9877652 123.489373,19.8256439 C123.489373,23.1968561 121.942819,26.2529167 119.434783,28.4854924" id="Fill-22" fill="#FFFDFF"></path>
        </g>
    </g>
</svg>