<?xml version="1.0" encoding="UTF-8"?>
<svg width="23px" height="21px" viewBox="0 0 23 21" version="1.1" xmlns="http://www.w3.org/2000/svg" xmlns:xlink="http://www.w3.org/1999/xlink">
    <!-- Generator: Sketch 40.3 (33839) - http://www.bohemiancoding.com/sketch -->
    <title>good</title>
    <desc>Created with Sketch.</desc>
    <defs></defs>
    <g id="Page-1" stroke="none" stroke-width="1" fill="none" fill-rule="evenodd">
        <g id="good" fill="#7ED321">
            <g id="Page-1">
                <g id="good">
                    <path d="M22.03125,9 L21.984375,9.09375 L22.03125,9.09375 L22.03125,11.015625 C22.03125,11.2656263 21.9843755,11.5156237 21.890625,11.765625 L18.84375,18.796875 C18.5312484,19.6093791 17.9218795,20.015625 17.015625,20.015625 L8.015625,20.015625 C7.48437234,20.015625 7.01562703,19.812502 6.609375,19.40625 C6.20312297,18.999998 6,18.5312527 6,18 L6,8.015625 C6,7.48437234 6.20312297,7.01562703 6.609375,6.609375 L13.171875,0 L14.25,1.078125 C14.5312514,1.35937641 14.671875,1.70312297 14.671875,2.109375 L14.671875,2.4375 L13.6875,7.03125 L20.015625,7.03125 C20.5468777,7.03125 21.015623,7.22656055 21.421875,7.6171875 C21.828127,8.00781445 22.03125,8.46874734 22.03125,9 L22.03125,9 L22.03125,9 Z M0,20.015625 L0,8.015625 L4.03125,8.015625 L4.03125,20.015625 L0,20.015625 L0,20.015625 Z" id="thumb_up"></path>
                </g>
            </g>
        </g>
    </g>
</svg>