<?xml version="1.0" encoding="UTF-8"?>
<svg width="24px" height="24px" viewBox="0 0 24 24" version="1.1" xmlns="http://www.w3.org/2000/svg" xmlns:xlink="http://www.w3.org/1999/xlink">
    <!-- Generator: Sketch 40.3 (33839) - http://www.bohemiancoding.com/sketch -->
    <title>ok</title>
    <desc>Created with Sketch.</desc>
    <defs></defs>
    <g id="Page-1" stroke="none" stroke-width="1" fill="none" fill-rule="evenodd">
        <g id="ok" fill="#F6A623">
            <g id="Page-1">
                <g id="okay">
                    <path d="M22.5,9.984375 C22.9375022,9.984375 23.2968736,10.132811 23.578125,10.4296875 C23.8593764,10.726564 24,11.078123 24,11.484375 L24,18 C24,18.4375022 23.8593764,18.7968736 23.578125,19.078125 L18.609375,24 L17.8125,23.203125 C17.5937489,22.9843739 17.484375,22.7187516 17.484375,22.40625 C17.5781255,21.9687478 17.7109366,21.3437541 17.8828125,20.53125 C18.0546884,19.7187459 18.1562498,19.2031261 18.1875,18.984375 L12.984375,18.984375 C12.7031236,18.984375 12.4687509,18.8906259 12.28125,18.703125 C12.0937491,18.5156241 12,18.2812514 12,18 L12,16.734375 C12,16.6406245 12.0312497,16.4687513 12.09375,16.21875 L14.390625,10.921875 C14.6718764,10.2968719 15.1249969,9.984375 15.75,9.984375 L22.5,9.984375 L22.5,9.984375 Z M12,6 L12,7.265625 C12,7.35937547 11.9687503,7.53124875 11.90625,7.78125 L9.609375,13.078125 C9.32812359,13.7031281 8.87500312,14.015625 8.25,14.015625 L1.5,14.015625 C1.06249781,14.015625 0.703126406,13.867189 0.421875,13.5703125 C0.140623594,13.273436 0,12.921877 0,12.515625 L0,6 C0,5.56249781 0.140623594,5.20312641 0.421875,4.921875 L5.390625,0 L6.1875,0.796875 C6.40625109,1.01562609 6.515625,1.28124844 6.515625,1.59375 C6.42187453,2.03125219 6.28906336,2.65624594 6.1171875,3.46875 C5.94531164,4.28125406 5.84375016,4.79687391 5.8125,5.015625 L11.015625,5.015625 C11.2968764,5.015625 11.5312491,5.10937406 11.71875,5.296875 C11.9062509,5.48437594 12,5.71874859 12,6 L12,6 L12,6 Z" id="thumbs_up_down"></path>
                </g>
            </g>
        </g>
    </g>
</svg>