<?xml version="1.0" encoding="UTF-8"?>
<svg width="24px" height="24px" viewBox="0 0 24 24" version="1.1" xmlns="http://www.w3.org/2000/svg" xmlns:xlink="http://www.w3.org/1999/xlink">
    <!-- Generator: Sketch 40.3 (33839) - http://www.bohemiancoding.com/sketch -->
    <title>bad</title>
    <desc>Created with Sketch.</desc>
    <defs></defs>
    <g id="Page-1" stroke="none" stroke-width="1" fill="none" fill-rule="evenodd">
        <g id="bad" fill="#FDBE41">
            <path d="M19,2 L23.03125,2 L23.03125,14 L19,14 L19,2 Z M15.015625,2 C15.5468777,2 16.015623,2.20312297 16.421875,2.609375 C16.828127,3.01562703 17.03125,3.48437234 17.03125,4.015625 L17.03125,14 C17.03125,14.5312527 16.828127,14.999998 16.421875,15.40625 L9.859375,22.015625 L8.78125,20.9375 C8.49999859,20.6562486 8.359375,20.312502 8.359375,19.90625 L8.359375,19.578125 L9.34375,14.984375 L3.015625,14.984375 C2.48437234,14.984375 2.01562703,14.7890645 1.609375,14.3984375 C1.20312297,14.0078105 1,13.5468777 1,13.015625 L1.046875,12.921875 L1,12.921875 L1,11 C1,10.7499987 1.04687453,10.5000013 1.140625,10.25 L4.1875,3.21875 C4.50000156,2.40624594 5.10937047,2 6.015625,2 L15.015625,2 Z" id="thumb_down"></path>
        </g>
    </g>
</svg>