<?xml version="1.0" encoding="UTF-8"?>
<svg width="24px" height="24px" viewBox="0 0 24 24" version="1.1" xmlns="http://www.w3.org/2000/svg" xmlns:xlink="http://www.w3.org/1999/xlink">
    <!-- Generator: Sketch 40.3 (33839) - http://www.bohemiancoding.com/sketch -->
    <title>good</title>
    <desc>Created with Sketch.</desc>
    <defs></defs>
    <g id="Page-1" stroke="none" stroke-width="1" fill="none" fill-rule="evenodd">
        <g id="good" fill="#FF5252">
            <path d="M23.03125,10 L22.984375,10.09375 L23.03125,10.09375 L23.03125,12.015625 C23.03125,12.2656263 22.9843755,12.5156237 22.890625,12.765625 L19.84375,19.796875 C19.5312484,20.6093791 18.9218795,21.015625 18.015625,21.015625 L9.015625,21.015625 C8.48437234,21.015625 8.01562703,20.812502 7.609375,20.40625 C7.20312297,19.999998 7,19.5312527 7,19 L7,9.015625 C7,8.48437234 7.20312297,8.01562703 7.609375,7.609375 L14.171875,1 L15.25,2.078125 C15.5312514,2.35937641 15.671875,2.70312297 15.671875,3.109375 L15.671875,3.4375 L14.6875,8.03125 L21.015625,8.03125 C21.5468777,8.03125 22.015623,8.22656055 22.421875,8.6171875 C22.828127,9.00781445 23.03125,9.46874734 23.03125,10 L23.03125,10 Z M1,21.015625 L1,9.015625 L5.03125,9.015625 L5.03125,21.015625 L1,21.015625 Z" id="thumb_up"></path>
        </g>
    </g>
</svg>